HIERARCHY
ROOT joint_Root
{
	OFFSET 0.0 0.0 0.0
	CHANNELS 6 Xposition Yposition Zposition Zrotation Xrotation Yrotation 
	JOINT Hips
	{
		OFFSET 4.5925 91.4895 -427.239
		CHANNELS 6 Xposition Yposition Zposition Zrotation Xrotation Yrotation 
		JOINT Spine
		{
			OFFSET 15.7357 0.0 0.0
			CHANNELS 6 Xposition Yposition Zposition Zrotation Xrotation Yrotation 
			JOINT Chest
			{
				OFFSET 8.98455 -0.406207 0.0
				CHANNELS 6 Xposition Yposition Zposition Zrotation Xrotation Yrotation 
				JOINT Neck
				{
					OFFSET 16.3773 0.0 0.0
					CHANNELS 6 Xposition Yposition Zposition Zrotation Xrotation Yrotation 
					JOINT Head
					{
						OFFSET 6.45672 0.0 0.0
						CHANNELS 6 Xposition Yposition Zposition Zrotation Xrotation Yrotation 
						End Site
						{
							OFFSET 0.0 0.0 0.0
						}
					}
				}
				JOINT Shoulder_L
				{
					OFFSET 12.9942 -0.242716 4.98039
					CHANNELS 6 Xposition Yposition Zposition Zrotation Xrotation Yrotation 
					JOINT UpperArm_L
					{
						OFFSET 5.34809 0.0 0.0
						CHANNELS 6 Xposition Yposition Zposition Zrotation Xrotation Yrotation 
						JOINT LowerArm_L
						{
							OFFSET 24.3286 1.87007e-05 0.0
							CHANNELS 6 Xposition Yposition Zposition Zrotation Xrotation Yrotation 
							JOINT Hand_L
							{
								OFFSET 22.2916 0.0 0.0
								CHANNELS 6 Xposition Yposition Zposition Zrotation Xrotation Yrotation 
								End Site
								{
									OFFSET 0.0 0.0 0.0
								}
							}
						}
					}
				}
				JOINT Shoulder_R
				{
					OFFSET 12.9945 -0.242716 -4.98039
					CHANNELS 6 Xposition Yposition Zposition Zrotation Xrotation Yrotation 
					JOINT UpperArm_R
					{
						OFFSET -5.34813 0.0 0.0
						CHANNELS 6 Xposition Yposition Zposition Zrotation Xrotation Yrotation 
						JOINT LowerArm_R
						{
							OFFSET -24.3289 0.000322201 0.0
							CHANNELS 6 Xposition Yposition Zposition Zrotation Xrotation Yrotation 
							JOINT Hand_R
							{
								OFFSET -22.2915 -0.000108084 0.0
								CHANNELS 6 Xposition Yposition Zposition Zrotation Xrotation Yrotation 
								End Site
								{
									OFFSET 0.0 0.0 0.0
								}
							}
						}
					}
				}
			}
		}
		JOINT UpperLeg_L
		{
			OFFSET -2.19248 -6.46944 0.0
			CHANNELS 6 Xposition Yposition Zposition Zrotation Xrotation Yrotation 
			JOINT LowerLeg_L
			{
				OFFSET 39.0811 0.0 -1.23785e-05
				CHANNELS 6 Xposition Yposition Zposition Zrotation Xrotation Yrotation 
				JOINT Foot_L
				{
					OFFSET 40.9854 0.0 -1.26872e-05
					CHANNELS 6 Xposition Yposition Zposition Zrotation Xrotation Yrotation 
					JOINT Toes_L
					{
						OFFSET 11.7543 0.0 0.0
						CHANNELS 6 Xposition Yposition Zposition Zrotation Xrotation Yrotation 
						End Site
						{
							OFFSET 0.0 0.0 0.0
						}
					}
				}
			}
		}
		JOINT UpperLeg_R
		{
			OFFSET -2.19251 6.46944 0.0
			CHANNELS 6 Xposition Yposition Zposition Zrotation Xrotation Yrotation 
			JOINT LowerLeg_R
			{
				OFFSET -39.0811 -0.00228153 -0.0401928
				CHANNELS 6 Xposition Yposition Zposition Zrotation Xrotation Yrotation 
				JOINT Foot_R
				{
					OFFSET -40.9854 0.0 0.0
					CHANNELS 6 Xposition Yposition Zposition Zrotation Xrotation Yrotation 
					JOINT Toes_R
					{
						OFFSET -11.7543 0.0 0.0
						CHANNELS 6 Xposition Yposition Zposition Zrotation Xrotation Yrotation 
						End Site
						{
							OFFSET 0.0 0.0 0.0
						}
					}
				}
			}
		}
	}
}
MOTION
Frames:	6
Frame Time:	0.0333333
0.000000 0.000000 0.000000 0.000000 0.000000 -0.000000 -0.121235 83.127900 0.295592 89.540300 -2.505200 12.088500 15.735700 0.000005 -0.000001 90.189000 80.152800 -90.181000 8.984550 -0.406207 -0.000000 11.928200 0.064675 0.009232 16.377300 -0.000001 -0.000001 -3.488680 -2.888260 1.862380 6.456720 -0.000001 -0.000000 -6.744020 -2.422250 2.233990 12.994200 -0.242716 4.980390 -90.948900 3.011870 -72.503600 5.348090 -0.000007 -0.000001 -61.751200 26.925800 -9.930530 24.328600 0.000019 0.000005 8.913390 28.911300 -17.978600 22.291600 -0.000001 0.000005 1.705710 5.355720 -1.555050 12.994500 -0.242716 -4.980390 88.841700 6.338780 -79.621100 -5.348130 -0.000001 -0.000004 -56.832200 33.691300 -12.412300 -24.328900 0.000322 -0.000009 3.623520 17.415500 -11.956200 -22.291500 -0.000108 -0.000004 -11.291100 5.299360 0.090413 -2.192480 -6.469440 -0.000000 -175.119000 -9.278540 -11.578000 39.081100 -0.000007 -0.000012 -0.582471 0.348010 59.144200 40.985400 -0.000006 -0.000013 -0.395420 1.341820 -85.337700 11.754300 -0.000000 0.000003 -0.000385 -0.003205 -16.695900 -2.192510 6.469440 -0.000001 176.085000 11.287500 169.442000 -39.081100 -0.002282 -0.040193 0.087519 -0.049948 59.357400 -40.985400 0.000008 0.000006 5.458580 1.586510 -85.687700 -11.754300 -0.000006 -0.000006 -1.003560 -1.241460 -17.039200
0.000000 0.000000 0.000000 0.000000 0.000000 -0.000000 -0.182959 85.370300 0.740735 89.536300 -1.760210 11.817700 15.735700 0.000005 -0.000001 89.716700 81.641900 -89.728600 8.984550 -0.406207 -0.000000 8.950030 -0.082340 -0.017332 16.377300 -0.000001 -0.000001 0.597436 -3.060160 2.085350 6.456720 -0.000001 -0.000000 -3.730560 -2.421650 1.998190 12.994200 -0.242716 4.980390 -90.756300 2.319300 -71.934300 5.348090 -0.000007 -0.000001 -53.103100 20.165000 -23.336900 24.328600 0.000019 0.000005 10.761800 27.375600 -22.457000 22.291600 -0.000001 0.000005 5.146860 5.346830 -1.282750 12.994500 -0.242716 -4.980390 89.067100 4.674640 -78.698300 -5.348130 -0.000001 -0.000004 -49.409300 26.913400 -24.306800 -24.328900 0.000322 -0.000009 3.365250 12.831300 -14.840100 -22.291500 -0.000108 -0.000004 -7.265860 5.350710 -1.369170 -2.192480 -6.469440 -0.000000 -175.110000 -9.178430 -8.220740 39.081100 -0.000007 -0.000012 -0.472951 0.366943 52.194700 40.985400 -0.000006 -0.000013 -0.240636 1.978480 -82.039800 11.754300 -0.000000 0.000003 -0.000334 -0.002844 -16.683100 -2.192510 6.469440 -0.000001 175.701000 12.693700 172.924000 -39.081100 -0.002282 -0.040193 0.071176 -0.052061 52.537300 -40.985400 0.000008 0.000006 5.514650 2.728710 -82.255900 -11.754300 -0.000006 -0.000006 -1.116720 -1.378360 -17.284700
0.000000 0.000000 0.000000 0.000000 0.000000 -0.000000 -0.261153 87.518700 1.015540 89.753400 -1.625370 10.900900 15.735700 0.000005 -0.000001 89.570200 83.380200 -89.671600 8.984550 -0.406207 -0.000000 5.473100 -0.097067 -0.198072 16.377300 -0.000001 -0.000001 5.294500 -2.912640 2.291290 6.456720 -0.000001 -0.000000 -0.354410 -2.347980 1.421700 12.994200 -0.242716 4.980390 -90.342600 1.055650 -72.027300 5.348090 -0.000007 -0.000001 -46.318500 10.306500 -37.052600 24.328600 0.000019 0.000005 13.580100 25.527800 -29.277500 22.291600 -0.000001 0.000005 6.875320 5.360190 -1.681110 12.994500 -0.242716 -4.980390 89.317200 3.196170 -77.932500 -5.348130 -0.000001 -0.000004 -43.272700 15.741200 -37.277400 -24.328900 0.000322 -0.000009 4.637360 11.813900 -21.622700 -22.291500 -0.000108 -0.000004 0.213757 5.398900 -2.833140 -2.192480 -6.469440 -0.000000 -175.207000 -10.020600 -5.180620 39.081100 -0.000007 -0.000012 -0.360533 0.366044 44.566200 40.985400 -0.000006 -0.000013 -0.053803 2.948580 -78.336100 11.754300 -0.000000 0.000003 -0.000262 -0.002326 -16.664600 -2.192510 6.469440 -0.000001 175.110000 14.501900 175.722000 -39.081100 -0.002282 -0.040193 0.055217 -0.051173 45.433800 -40.985400 0.000008 0.000006 5.968750 4.747470 -78.464000 -11.754300 -0.000006 -0.000006 -1.093510 -1.335920 -17.784000
0.000000 0.000000 0.000000 0.000000 0.000000 -0.000000 -0.279714 89.034200 1.006310 89.712600 -1.945220 9.264290 15.735700 0.000005 -0.000001 89.349800 84.888600 -89.384200 8.984550 -0.406207 -0.000000 2.456010 -0.114320 -0.066352 16.377300 -0.000001 -0.000001 7.794490 -2.595330 2.144460 6.456720 -0.000001 -0.000000 1.917330 -1.892520 0.757909 12.994200 -0.242716 4.980390 -89.633900 -1.169160 -72.606600 5.348090 -0.000007 -0.000001 -40.765300 -1.227790 -48.971300 24.328600 0.000019 0.000005 15.326700 19.528600 -39.361100 22.291600 -0.000001 0.000005 13.043000 5.379090 -2.228050 12.994500 -0.242716 -4.980390 89.788100 1.002520 -78.069400 -5.348130 -0.000001 -0.000004 -39.673300 2.238490 -49.446200 -24.328900 0.000322 -0.000009 5.333190 7.899670 -34.252800 -22.291500 -0.000108 -0.000004 10.783300 5.528780 -7.393860 -2.192480 -6.469440 -0.000000 -175.230000 -11.141300 -3.813740 39.081100 -0.000007 -0.000012 -0.279635 0.350973 38.546400 40.985400 -0.000006 -0.000013 0.029289 3.699150 -75.276500 11.754300 -0.000000 0.000003 -0.000206 -0.001899 -16.649100 -2.192510 6.469440 -0.000001 174.993000 16.418300 176.920000 -39.081100 -0.002282 -0.040193 0.040719 -0.045152 39.665400 -40.985400 0.000008 0.000006 6.319860 7.280510 -75.466000 -11.754300 -0.000006 -0.000006 -1.122310 -1.367480 -17.935800
0.000000 0.000000 0.000000 0.000000 0.000000 -0.000000 -0.261553 89.933700 0.866377 89.522800 -2.571840 7.403930 15.735700 0.000005 -0.000001 89.694300 85.715300 -89.610900 8.984550 -0.406207 -0.000000 0.803275 -0.050772 0.167097 16.377300 -0.000001 -0.000001 7.124480 -2.085290 1.934700 6.456720 -0.000001 -0.000000 1.809040 -1.126370 0.447193 12.994200 -0.242716 4.980390 -88.789100 -3.825430 -72.422800 5.348090 -0.000007 -0.000001 -38.495300 -16.361000 -60.089600 24.328600 0.000019 0.000005 17.536500 14.993400 -50.689900 22.291600 -0.000001 0.000005 20.768900 5.389260 -2.613520 12.994500 -0.242716 -4.980390 90.352600 -1.676460 -78.119500 -5.348130 -0.000001 -0.000004 -38.941100 -13.638600 -62.120500 -24.328900 0.000322 -0.000009 5.301720 4.592960 -49.167700 -22.291500 -0.000108 -0.000004 20.148100 5.600630 -11.337600 -2.192480 -6.469440 -0.000000 -175.466000 -11.426700 -3.856150 39.081100 -0.000007 -0.000012 -0.244479 0.353410 34.674900 40.985400 -0.000006 -0.000013 -0.178144 3.370340 -73.230200 11.754300 -0.000000 0.000003 -0.000188 -0.001757 -16.643900 -2.192510 6.469440 -0.000001 175.427000 17.569800 177.050000 -39.081100 -0.002282 -0.040193 0.031666 -0.039950 35.385100 -40.985400 0.000008 0.000006 6.524670 9.112210 -73.850500 -11.754300 -0.000006 -0.000006 -0.716515 -0.875436 -17.720300
0.000000 0.000000 0.000000 0.000000 0.000000 -0.000000 -0.238206 90.478000 0.683085 89.269800 -2.999070 5.548990 15.735700 0.000005 -0.000001 91.235600 86.151200 -91.057900 8.984550 -0.406207 -0.000000 -0.070462 0.153800 0.355163 16.377300 -0.000001 -0.000001 4.952980 -1.629320 1.547960 6.456720 -0.000001 -0.000000 0.346758 -0.752446 0.839054 12.994200 -0.242716 4.980390 -87.910800 -6.241330 -71.453200 5.348090 -0.000007 -0.000001 -41.144700 -31.839000 -72.675800 24.328600 0.000019 0.000005 19.830700 13.190400 -57.678100 22.291600 -0.000001 0.000005 28.453000 5.400890 -2.912750 12.994500 -0.242716 -4.980390 91.053000 -4.677350 -77.305000 -5.348130 -0.000001 -0.000004 -46.096600 -29.780300 -78.699800 -24.328900 0.000322 -0.000009 7.912050 5.046480 -57.679100 -22.291500 -0.000108 -0.000004 23.685000 5.612150 -12.040000 -2.192480 -6.469440 -0.000000 -175.928000 -10.369600 -4.728110 39.081100 -0.000007 -0.000012 -0.221710 0.351119 32.270300 40.985400 -0.000006 -0.000013 -0.640713 1.862530 -71.888500 11.754300 -0.000000 0.000003 -0.000194 -0.001801 -16.645600 -2.192510 6.469440 -0.000001 176.307000 17.665300 176.520000 -39.081100 -0.002282 -0.040193 0.028210 -0.039429 32.286400 -40.985400 0.000008 0.000006 6.545650 9.591190 -72.835400 -11.754300 -0.000006 -0.000006 -0.350989 -0.434959 -17.380900
